<svg xmlns="http://www.w3.org/2000/svg" width="910" height="274" viewBox="0 0 910 274" version="1.1"><path d="M 431.923 88.923 C 425.331 95.515, 430.366 106, 440.124 106 C 444.940 106, 449 101.273, 449 95.666 C 449 91.882, 448.517 90.772, 445.923 88.589 C 441.510 84.876, 435.835 85.011, 431.923 88.923 M 303.332 88.807 C 290.248 93.440, 283.062 102.800, 283.022 115.261 C 282.972 130.644, 291.692 138.890, 312.950 143.561 C 331.789 147.700, 336 150.380, 336 158.232 C 336 161.678, 335.390 162.890, 332.058 166.060 C 327.145 170.733, 320.543 172.430, 312.908 170.983 C 304.332 169.356, 299.994 165.600, 297.580 157.709 C 297.101 156.145, 295.988 155.955, 288.766 156.209 L 280.500 156.500 280.839 160 C 282.871 180.962, 312.079 193.639, 334.341 183.221 C 346.410 177.573, 351.870 170.485, 352.768 159.299 C 353.730 147.319, 349.095 138.132, 339.823 133.640 C 336.895 132.221, 328.875 129.868, 322 128.411 C 315.125 126.953, 308.375 125.182, 307 124.475 C 296.774 119.217, 297.041 108.530, 307.523 103.556 C 311.599 101.622, 321.949 101.523, 326.282 103.377 C 330.420 105.147, 334.882 109.909, 335.867 113.604 C 336.625 116.451, 336.771 116.505, 344.464 116.795 L 352.289 117.089 351.700 112.113 C 350.540 102.322, 344.771 95.129, 334.046 90.104 C 326.642 86.635, 311.295 85.987, 303.332 88.807 M 362.705 87.628 C 362.317 88.016, 362 110.083, 362 136.667 L 362 185 370.500 185 L 379 185 379 173.703 L 379 162.406 382.820 158.676 C 387.368 154.235, 385.834 152.987, 398.900 171.750 L 408.127 185 417.564 185 C 422.754 185, 427 184.790, 427 184.533 C 427 184.095, 418.680 172.166, 404.073 151.662 L 397.778 142.825 400.671 139.662 C 402.263 137.923, 407.713 132.133, 412.782 126.795 C 418.237 121.052, 422 116.255, 422 115.045 C 422 113.146, 421.395 113, 413.515 113 L 405.030 113 392.265 127.399 L 379.500 141.798 379 114.649 L 378.500 87.500 370.955 87.212 C 366.805 87.053, 363.093 87.241, 362.705 87.628 M 459.415 87.917 C 459.187 88.146, 459 110.083, 459 136.667 L 459 185 467.510 185 L 476.019 185 475.760 136.432 L 475.500 87.863 467.665 87.682 C 463.356 87.582, 459.643 87.688, 459.415 87.917 M 487 135.958 L 487 185 495.010 185 L 503.019 185 502.760 136.250 L 502.500 87.500 494.750 87.208 L 487 86.916 487 135.958 M 511.512 88.832 C 511.230 89.564, 511 93.052, 511 96.582 L 511 103 524.500 103 L 538 103 538 144 L 538 185 546.500 185 L 555 185 555 144 L 555 103 568.042 103 L 581.084 103 580.792 95.429 L 580.500 87.857 546.262 87.679 C 518.547 87.534, 511.926 87.754, 511.512 88.832 M 764.705 87.628 C 764.317 88.016, 764 110.083, 764 136.667 L 764 185 772.500 185 L 781 185 781.018 172.750 L 781.036 160.500 784.975 157.229 L 788.915 153.959 790.207 156.347 C 790.918 157.661, 795.550 164.628, 800.500 171.831 L 809.500 184.927 818.750 184.964 C 823.837 184.984, 827.979 184.662, 827.953 184.250 C 827.927 183.838, 821.424 174.050, 813.502 162.500 L 799.098 141.500 812.555 128.500 C 819.957 121.350, 826.010 114.938, 826.006 114.250 C 826.002 113.339, 823.445 113, 816.574 113 L 807.147 113 794.324 126.923 L 781.500 140.845 781 114.173 L 780.500 87.500 772.955 87.212 C 768.805 87.053, 765.093 87.241, 764.705 87.628 M 716.929 112.310 C 705.964 115.404, 697.840 122.798, 693.847 133.317 C 691.867 138.532, 691.506 141.300, 691.536 151 C 691.566 160.623, 691.926 163.270, 693.738 167.220 C 696.777 173.845, 702.921 180.132, 709.710 183.562 C 714.830 186.150, 716.542 186.490, 724.500 186.495 C 732.154 186.499, 734.322 186.108, 739 183.877 C 748.221 179.480, 754.172 172.029, 755.601 163.092 L 756.256 159 748.326 159 L 740.397 159 738.275 164.022 C 736.473 168.287, 735.446 169.358, 731.464 171.119 C 724.521 174.190, 718.832 173.099, 713.403 167.655 C 710.236 164.479, 708.994 162.252, 708.130 158.201 C 705.571 146.202, 707.663 136.344, 713.981 130.637 C 718.601 126.463, 721.414 125.561, 727.636 126.262 C 732.645 126.827, 737.021 130.223, 739.049 135.117 C 740.224 137.954, 740.370 138, 748.233 138 L 756.223 138 755.537 134.250 C 754.071 126.235, 746.835 117.584, 738.520 113.906 C 732.996 111.462, 722.645 110.697, 716.929 112.310 M 609.759 113.398 C 604.578 115.282, 601.440 117.484, 598.775 121.106 L 596.500 124.198 596 118.849 L 595.500 113.500 587.500 113.500 L 579.500 113.500 579.237 149.250 L 578.975 185 587.487 185 L 596 185 596 163.712 C 596 143.607, 596.125 142.179, 598.250 138.020 C 601.556 131.551, 604.754 129.636, 613.032 129.168 L 620 128.774 620 120.887 C 620 115.251, 619.643 112.996, 618.750 112.986 C 618.063 112.979, 616.600 112.762, 615.500 112.506 C 614.400 112.249, 611.817 112.650, 609.759 113.398 M 646.500 112.894 C 637.301 115.368, 629.859 120.901, 626.865 127.491 C 623.687 134.488, 624.033 135, 631.943 135 C 638.525 135, 638.975 134.851, 640.579 132.136 C 644.082 126.206, 653.375 123.759, 660.680 126.842 C 663.935 128.216, 667 133.057, 667 136.824 C 667 139.374, 664.261 140.265, 648.253 142.923 C 634.923 145.136, 629.648 147.253, 625.666 151.986 C 622.600 155.629, 621.597 160.125, 622.207 167.486 C 623.074 177.936, 631.354 185.683, 642.750 186.706 C 650.433 187.396, 655.839 185.776, 661.938 180.955 L 667 176.953 667 180.977 L 667 185 675 185 L 683 185 682.994 159.750 C 682.991 145.863, 682.547 132.909, 682.007 130.965 C 678.842 119.572, 669.796 112.940, 656.673 112.389 C 652.728 112.223, 648.150 112.451, 646.500 112.894 M 863.500 112.492 C 862.950 112.675, 861.337 113.079, 859.916 113.390 C 856.749 114.082, 850.173 119.193, 847.780 122.821 L 846.013 125.500 846.007 119.208 L 846 112.916 838.250 113.208 L 830.500 113.500 830.237 149.250 L 829.975 185 838.435 185 L 846.895 185 847.198 162.169 L 847.500 139.339 850.382 135.563 C 853.880 130.981, 858.282 129, 864.968 129 L 870 129 870 121 C 870 114.761, 869.688 113, 868.582 113 C 867.802 113, 866.564 112.811, 865.832 112.579 C 865.099 112.348, 864.050 112.308, 863.500 112.492 M 431.705 113.628 C 431.317 114.016, 431 130.233, 431 149.667 L 431 185 439.513 185 L 448.025 185 447.763 149.250 L 447.500 113.500 439.955 113.212 C 435.805 113.053, 432.093 113.241, 431.705 113.628 M 654.348 153.482 C 641.654 156.269, 641.479 156.340, 639.414 159.492 C 637.966 161.701, 637.886 162.677, 638.885 166.009 C 640.460 171.268, 643.212 173, 649.990 173 C 659.842 173, 665.039 167.724, 666.572 156.168 C 667.370 150.150, 668.447 150.386, 654.348 153.482" stroke="none" fill="#071a45" fill-rule="evenodd"/><path d="M 243.500 18.616 C 240.200 20.009, 230.525 23.857, 222 27.169 C 213.475 30.481, 205.713 33.892, 204.750 34.750 C 202.142 37.075, 202.582 39.078, 207 45 C 209.200 47.949, 211 50.819, 211 51.379 C 211 53.052, 167.691 96, 166.003 96 C 165.147 96, 161.320 92.850, 157.500 89 C 148.810 80.243, 146.990 80.006, 140.238 86.750 C 121.983 104.983, 59.736 169.755, 58.689 171.607 C 57.443 173.809, 58.590 176.036, 63.913 181.750 C 72.003 190.434, 71.413 190.734, 96.271 165.250 C 107.940 153.287, 121.765 139.028, 126.993 133.563 C 132.222 128.097, 138.577 121.460, 141.116 118.813 C 143.655 116.166, 146.465 114, 147.360 114 C 148.255 114, 152.051 117.150, 155.796 121 C 166.618 132.126, 164.070 133.460, 197.807 99 C 213.422 83.050, 226.850 70, 227.647 70 C 228.444 70, 230.087 71.052, 231.298 72.338 C 236.851 78.235, 242.633 79.424, 244.925 75.140 C 246.213 72.733, 256 24.255, 256 20.281 C 256 15.241, 252.580 14.785, 243.500 18.616 M 211.635 102.073 L 209 104.145 209 164.462 C 209 220.883, 209.115 224.921, 210.786 226.984 C 212.994 229.711, 218.755 230.901, 230 230.951 C 239.891 230.995, 245.564 229.683, 246.988 227.022 C 247.639 225.807, 248 203.557, 248 164.740 L 248 104.349 245.686 102.174 C 243.528 100.148, 242.384 100, 228.820 100 C 215.614 100, 214.026 100.191, 211.635 102.073 M 156.044 138.691 C 153.588 139.977, 152.338 141.485, 151.726 143.903 C 150.345 149.354, 151.251 224.065, 152.729 226.645 C 154.614 229.934, 159.252 231, 171.681 231 C 184.636 231, 189.429 229.632, 191.006 225.483 C 192.302 222.076, 192.340 146.024, 191.048 142.626 C 189.477 138.495, 186.468 137.621, 172.500 137.239 C 161.440 136.936, 158.984 137.153, 156.044 138.691 M 99.923 170.923 L 97 173.846 97 199.367 L 97 224.888 99.412 227.693 C 101.769 230.433, 102.101 230.505, 113.940 230.855 C 128.182 231.275, 132.296 230.672, 135.004 227.765 C 136.895 225.736, 136.998 224.247, 136.968 199.561 C 136.945 180.653, 136.602 173.065, 135.718 171.913 C 133.185 168.613, 130.171 168, 116.489 168 L 102.846 168 99.923 170.923 M 56.174 196.314 C 54.162 198.456, 54 199.642, 54 212.204 C 54 230.629, 53.894 230.500, 68.998 230.500 C 80.003 230.500, 80.210 230.457, 82.587 227.694 C 84.856 225.055, 85 224.153, 85 212.521 C 85 200.675, 84.891 200.024, 82.411 197.077 L 79.822 194 69.085 194 C 59.155 194, 58.185 194.174, 56.174 196.314" stroke="none" fill="#498ff8" fill-rule="evenodd"/></svg>