<?xml version="1.0" encoding="UTF-8"?>
<svg version="1.1" xmlns="http://www.w3.org/2000/svg" width="414" height="110">
<path d="M0 0 C-0.61722584 9.56700056 -2.8201341 18.69247957 -5 28 C-9.11574366 29.17592676 -11.13516607 28.70182603 -15 27 C-15.73114014 27.7520874 -16.46228027 28.5041748 -17.21557617 29.27905273 C-19.93562422 32.07160147 -22.66897174 34.85080872 -25.40649414 37.6262207 C-26.58854132 38.82836025 -27.76697067 40.03406848 -28.94165039 41.2434082 C-30.6326524 42.98303098 -32.33633122 44.70932434 -34.04296875 46.43359375 C-34.56400681 46.97527695 -35.08504486 47.51696014 -35.62187195 48.07505798 C-38.59002168 51.04500071 -40.71946782 52.82974365 -45 53 C-45.99 52.505 -45.99 52.505 -47 52 C-47 51.34 -47 50.68 -47 50 C-48.98 49.34 -50.96 48.68 -53 48 C-53.39201599 48.39645721 -53.78403198 48.79291443 -54.18792725 49.2013855 C-58.26993147 53.3276453 -62.35896553 57.44684136 -66.45214844 61.56201172 C-67.978703 63.09862221 -69.50345748 64.63702317 -71.02636719 66.17724609 C-73.21598793 68.39113252 -75.41200665 70.598494 -77.609375 72.8046875 C-78.2886908 73.49432587 -78.96800659 74.18396423 -79.66790771 74.89450073 C-80.30826965 75.53501373 -80.94863159 76.17552673 -81.60839844 76.83544922 C-82.44778961 77.68150223 -82.44778961 77.68150223 -83.30413818 78.54464722 C-85 80 -85 80 -89 82 C-90.98 79.69 -92.96 77.38 -95 75 C-90.38547636 65.77095273 -81.66206255 58.60561011 -74.38574219 51.40698242 C-71.15300934 48.19757436 -68.00772815 44.98010866 -65.0625 41.5 C-56.56797796 31.54241119 -56.56797796 31.54241119 -51.6328125 30.5 C-47.73417862 31.24039338 -45.88581723 33.31551886 -43 36 C-40.95684406 34.12660182 -38.91545741 32.25133366 -36.875 30.375 C-36.30523437 29.85292969 -35.73546875 29.33085938 -35.1484375 28.79296875 C-33.42309378 27.20486828 -31.70930173 25.60534619 -30 24 C-29.12347778 23.18571533 -29.12347778 23.18571533 -28.22924805 22.35498047 C-26.7664317 20.95681068 -25.37643718 19.4832839 -24 18 C-23.91194854 15.3566226 -23.91194854 15.3566226 -25 13 C-25.185625 12.236875 -25.37125 11.47375 -25.5625 10.6875 C-25.7790625 9.8521875 -25.7790625 9.8521875 -26 9 C-21.6534878 5.91646198 -17.3787961 3.66500967 -12.4375 1.6875 C-11.79103516 1.41099609 -11.14457031 1.13449219 -10.47851562 0.84960938 C-6.59663063 -0.71815089 -4.02070308 -1.31965495 0 0 Z " fill="#498FF5" transform="translate(108,5)"/>
<path d="M0 0 C0.68964844 -0.01224609 1.37929687 -0.02449219 2.08984375 -0.03710938 C3.89477494 -0.04238695 5.69917842 0.06565542 7.5 0.1875 C9.5 2.1875 9.5 2.1875 9.74050903 4.6678772 C9.7338472 6.23340836 9.7338472 6.23340836 9.72705078 7.83056641 C9.72689972 9.01163971 9.72674866 10.19271301 9.72659302 11.40957642 C9.71627045 12.68980682 9.70594788 13.97003723 9.6953125 15.2890625 C9.6924826 16.59579926 9.68965271 17.90253601 9.68673706 19.24887085 C9.67909776 22.72432081 9.6594469 26.19960383 9.6373291 29.67498779 C9.61687696 33.22080222 9.60773671 36.7666436 9.59765625 40.3125 C9.57620116 47.27090195 9.54206173 54.22919296 9.5 61.1875 C4.80720303 63.71159089 2.46797594 64.51595337 -2.8125 63.4375 C-3.86050781 63.23640625 -4.90851563 63.0353125 -5.98828125 62.828125 C-8.5 62.1875 -8.5 62.1875 -9.5 61.1875 C-9.59386381 59.3156906 -9.61743804 57.4403194 -9.61352539 55.56616211 C-9.61344986 54.36499252 -9.61337433 53.16382294 -9.61329651 51.92625427 C-9.60813522 50.6189888 -9.60297394 49.31172333 -9.59765625 47.96484375 C-9.59579198 46.62105868 -9.59436812 45.27727293 -9.59336853 43.93348694 C-9.58954402 40.39067723 -9.57971432 36.8479083 -9.56866455 33.30511475 C-9.55844899 29.69234773 -9.5538706 26.07957416 -9.54882812 22.46679688 C-9.53809198 15.3736812 -9.52101636 8.28059326 -9.5 1.1875 C-6.46576019 -0.3296199 -3.32495206 0.00310743 0 0 Z " fill="#498DF1" transform="translate(94.5,43.8125)"/>
<path d="M0 0 C3.85102598 2.14105549 5.83740011 4.24325476 7.46875 8.3515625 C8.46875 12.1640625 8.46875 12.1640625 8.46875 14.1640625 C7.00927295 14.10400172 5.55095728 14.0151936 4.09375 13.9140625 C2.87558594 13.84445313 2.87558594 13.84445313 1.6328125 13.7734375 C-0.53125 13.1640625 -0.53125 13.1640625 -1.6953125 11.1796875 C-1.97117188 10.51453125 -2.24703125 9.849375 -2.53125 9.1640625 C-5.17583379 7.84177061 -7.20886301 8.06729056 -10.15625 8.1015625 C-11.66058594 8.11509766 -11.66058594 8.11509766 -13.1953125 8.12890625 C-13.96617187 8.14050781 -14.73703125 8.15210938 -15.53125 8.1640625 C-15.53125 10.4740625 -15.53125 12.7840625 -15.53125 15.1640625 C-14.28988281 15.53917969 -13.04851562 15.91429688 -11.76953125 16.30078125 C-10.12734858 16.8168958 -8.48543539 17.33386834 -6.84375 17.8515625 C-6.02712891 18.09583984 -5.21050781 18.34011719 -4.36914062 18.59179688 C0.72936758 20.22249383 4.02696395 21.85334427 7.46875 26.1640625 C8.9455274 30.5943947 9.20697013 34.44154887 7.34375 38.7890625 C4.12327225 42.86833431 0.74016174 46.21283031 -4.53125 47.1640625 C-10.51523859 47.73923331 -15.23674641 47.26084762 -20.53125 44.1640625 C-23.84098564 41.19848078 -26.33229138 38.72257169 -26.90625 34.2265625 C-26.720625 33.205625 -26.720625 33.205625 -26.53125 32.1640625 C-23.48267627 31.8764612 -20.56738024 31.70454008 -17.53125 32.1640625 C-16.51258771 33.81938873 -15.51314187 35.48666388 -14.53125 37.1640625 C-11.52266647 38.14373614 -8.68128565 38.38581591 -5.53125 38.1640625 C-2.99168394 36.91381717 -2.99168394 36.91381717 -1.53125 35.1640625 C-1.39684222 32.73486385 -1.39684222 32.73486385 -2.53125 30.1640625 C-5.96024102 28.57203096 -9.26527292 27.52517039 -12.88671875 26.4921875 C-17.98805042 24.95409755 -21.04006276 23.41894695 -24.53125 19.1640625 C-26.12906534 15.96843182 -25.89966911 12.6405992 -25.53125 9.1640625 C-21.0549444 -1.20211889 -10.06683416 -3.32454091 0 0 Z " fill="#FDFDFD" transform="translate(145.53125,38.8359375)"/>
<path d="M0 0 C0.74572266 -0.00386719 1.49144531 -0.00773437 2.25976562 -0.01171875 C7.81086499 -0.00163501 7.81086499 -0.00163501 8.9375 1.125 C9.06351286 4.20410525 9.126196 7.25954393 9.140625 10.33984375 C9.14632507 11.26591934 9.15202515 12.19199493 9.15789795 13.14613342 C9.16736251 15.10904797 9.17388769 17.07197851 9.17773438 19.03491211 C9.18744788 22.04634123 9.21846065 25.0570904 9.25 28.06835938 C9.25652885 29.97135009 9.26177979 31.87434572 9.265625 33.77734375 C9.2779718 34.68258286 9.2903186 35.58782196 9.30303955 36.52049255 C9.30003845 37.35798538 9.29703735 38.19547821 9.29394531 39.05834961 C9.29759094 39.79701767 9.30123657 40.53568573 9.30499268 41.29673767 C8.9375 43.125 8.9375 43.125 5.9375 45.125 C2.90625 45.390625 2.90625 45.390625 -0.5625 45.375 C-1.7071875 45.38015625 -2.851875 45.3853125 -4.03125 45.390625 C-7.0625 45.125 -7.0625 45.125 -10.0625 43.125 C-11.10834791 38.27244615 -11.19096675 33.49730381 -11.1953125 28.546875 C-11.19626923 27.85362122 -11.19722595 27.16036743 -11.19821167 26.44610596 C-11.19888717 24.99401762 -11.19707721 23.54192615 -11.19287109 22.08984375 C-11.18748089 19.86711918 -11.19285414 17.64459365 -11.19921875 15.421875 C-11.1985585 14.00520789 -11.19727842 12.5885409 -11.1953125 11.171875 C-11.19418457 9.89151367 -11.19305664 8.61115234 -11.19189453 7.29199219 C-11.0625 4.125 -11.0625 4.125 -10.0625 1.125 C-6.88856311 -0.46196844 -3.48075795 -0.0181447 0 0 Z " fill="#498FF4" transform="translate(68.0625,61.875)"/>
<path d="M0 0 C2.64 0 5.28 0 8 0 C8 7.92 8 15.84 8 24 C8.66 24 9.32 24 10 24 C10.25652344 23.42765625 10.51304687 22.8553125 10.77734375 22.265625 C13.03749015 18.07749429 16.12584614 14.75320579 20 12 C23.12699892 11.36203422 25.86337338 11.4772289 29 12 C28.46960703 16.057041 26.42356448 17.94844566 23.5625 20.75 C22.75941406 21.54921875 21.95632813 22.3484375 21.12890625 23.171875 C19 25 19 25 17 25 C17.39380859 25.59538574 17.78761719 26.19077148 18.19335938 26.80419922 C19.96697095 29.49137818 21.73355765 32.18310345 23.5 34.875 C24.12003906 35.81214844 24.74007813 36.74929687 25.37890625 37.71484375 C25.96542969 38.61074219 26.55195313 39.50664063 27.15625 40.4296875 C27.70087891 41.25710449 28.24550781 42.08452148 28.80664062 42.93701172 C30 45 30 45 30 47 C26.46069051 47.70501336 23.50906272 47.93847026 20 47 C16.22059326 42.95063563 13.74510184 38.23530553 12 33 C11.01 33.66 10.02 34.32 9 35 C8.41518879 37.88595946 8.41518879 37.88595946 8.3125 41.125 C8.24675781 42.22070312 8.18101562 43.31640625 8.11328125 44.4453125 C8.07589844 45.28835937 8.03851563 46.13140625 8 47 C5.03 47 2.06 47 -1 47 C-1.02464347 40.46720661 -1.04283291 33.93444002 -1.05493164 27.40161133 C-1.05997317 25.17732268 -1.06680623 22.95303737 -1.07543945 20.72875977 C-1.08751298 17.53921691 -1.09322996 14.34971771 -1.09765625 11.16015625 C-1.10281754 10.15912369 -1.10797882 9.15809113 -1.11329651 8.12672424 C-1.11337204 7.20584518 -1.11344757 6.28496613 -1.11352539 5.33618164 C-1.115746 4.52121719 -1.11796661 3.70625275 -1.12025452 2.86659241 C-1 1 -1 1 0 0 Z " fill="#FDFDFD" transform="translate(349,38)"/>
<path d="M0 0 C2.64 0 5.28 0 8 0 C8.33 7.92 8.66 15.84 9 24 C12.28587046 20.07210211 12.28587046 20.07210211 15.51953125 16.1015625 C17.5901878 13.73688523 18.98635161 12.17596789 22.16015625 11.625 C24.375 11.625 24.375 11.625 28 12 C28.33 12.66 28.66 13.32 29 14 C28.52949219 14.53109375 28.05898437 15.0621875 27.57421875 15.609375 C26.95160156 16.31578125 26.32898438 17.0221875 25.6875 17.75 C25.07261719 18.44609375 24.45773438 19.1421875 23.82421875 19.859375 C23.22222656 20.56578125 22.62023437 21.2721875 22 22 C21.38769531 22.64453125 20.77539062 23.2890625 20.14453125 23.953125 C18.72685548 25.96005863 18.72685548 25.96005863 19.4921875 28.30078125 C21.44898648 31.8037556 23.72803343 34.9747591 26.125 38.1875 C31 44.73450413 31 44.73450413 31 47 C27.39110936 47.88150356 24.57794797 48.09367428 21 47 C17.33553076 43.02434596 14.66547164 38.68710956 12 34 C11.01 34.66 10.02 35.32 9 36 C8.41651248 38.6556728 8.41651248 38.6556728 8.3125 41.625 C8.24675781 42.62789062 8.18101562 43.63078125 8.11328125 44.6640625 C8.07589844 45.43492188 8.03851563 46.20578125 8 47 C5.03 47 2.06 47 -1 47 C-1.02478342 41.27083651 -1.04289954 35.54170448 -1.05493164 29.8125 C-1.05994955 27.86490332 -1.06676534 25.91731039 -1.07543945 23.96972656 C-1.08761652 21.16470411 -1.09325383 18.35973163 -1.09765625 15.5546875 C-1.10539818 14.25590164 -1.10539818 14.25590164 -1.11329651 12.93087769 C-1.11370419 8.5027179 -0.89613596 4.35974798 0 0 Z " fill="#FDFDFD" transform="translate(158,38)"/>
<path d="M0 0 C3.85544798 1.99657127 5.59805092 3.39707638 8 7 C9.08617126 13.17546428 9.12160712 19.24373887 9.0625 25.5 C9.05798828 26.4178125 9.05347656 27.335625 9.04882812 28.28125 C9.03716348 30.5208621 9.01923286 32.76044011 9 35 C6.03 35 3.06 35 0 35 C-0.33 34.34 -0.66 33.68 -1 33 C-1.66 33.495 -2.32 33.99 -3 34.5 C-6.73096177 36.36548089 -9.94581972 36.8710153 -14 36 C-17.01784991 34.24392354 -19.41468217 32.17063565 -21 29 C-21.44675288 24.45801234 -21.6716321 22.11938683 -19.3125 18.1875 C-13.71434489 14.49060512 -6.70109669 13 0 13 C-0.33 11.35 -0.66 9.7 -1 8 C-5.01211799 7.79382155 -5.01211799 7.79382155 -9 8 C-9.495 8.495 -9.99 8.99 -10.5 9.5 C-12 11 -12 11 -13.94921875 11.19921875 C-15.96721107 11.18865335 -17.9844161 11.09912708 -20 11 C-18.76141604 6.04566415 -17.27241667 3.81354269 -13 1 C-8.65450479 -0.4484984 -4.54143034 -0.52265295 0 0 Z M-6.5 19.75 C-7.2940625 19.88921875 -8.088125 20.0284375 -8.90625 20.171875 C-11.18142944 20.83022424 -11.18142944 20.83022424 -12.28125 23.078125 C-12.5184375 23.71234375 -12.755625 24.3465625 -13 25 C-12.01 26.32 -11.02 27.64 -10 29 C-6.59919423 28.89592083 -6.59919423 28.89592083 -3 28 C-0.26116247 24.73106489 0 23.3339145 0 19 C-2.25811374 19 -4.27996154 19.33194081 -6.5 19.75 Z " fill="#FDFDFD" transform="translate(302,50)"/>
<path d="M0 0 C1.39120471 0.00015906 2.78241534 0.00585033 4.17358398 0.01586914 C4.90463852 0.01728409 5.63569305 0.01869904 6.38890076 0.02015686 C8.73253406 0.02577131 11.07607313 0.03832617 13.41967773 0.05102539 C15.00496282 0.05603853 16.59024939 0.06060176 18.17553711 0.06469727 C22.06945383 0.07574542 25.96329979 0.09301967 29.85717773 0.11352539 C29.85717773 2.75352539 29.85717773 5.39352539 29.85717773 8.11352539 C25.89717773 8.11352539 21.93717773 8.11352539 17.85717773 8.11352539 C17.85717773 20.98352539 17.85717773 33.85352539 17.85717773 47.11352539 C14.88717773 47.11352539 11.91717773 47.11352539 8.85717773 47.11352539 C8.85717773 34.24352539 8.85717773 21.37352539 8.85717773 8.11352539 C4.56717773 8.11352539 0.27717773 8.11352539 -4.14282227 8.11352539 C-4.1852395 5.78057764 -4.18375164 3.44649972 -4.14282227 1.11352539 C-3.14282227 0.11352539 -3.14282227 0.11352539 0 0 Z " fill="#FDFDFD" transform="translate(232.142822265625,37.886474609375)"/>
<path d="M0 0 C4.38045089 2.27134491 6.9638815 4.47529222 9 9 C9 10.32 9 11.64 9 13 C6.36 13 3.72 13 1 13 C0.34 11.35 -0.32 9.7 -1 8 C-6.07168736 7.5231292 -6.07168736 7.5231292 -10.375 9.875 C-13.36922072 13.7905194 -13.36183578 17.20091494 -13 22 C-12.11009694 25.07421056 -11.44692901 25.73425843 -8.6875 27.375 C-5.32303128 28.15743459 -3.94920054 27.7535787 -1 26 C0.34410262 23.98264795 0.34410262 23.98264795 1 22 C3.64 22 6.28 22 9 22 C8.93032569 25.48371543 8.81133452 28.07858492 6.4453125 30.765625 C1.37242541 35.10178575 -1.76033231 36.35849041 -8.4609375 36.28125 C-13.43602713 35.73016315 -16.12519403 32.99302299 -19.3125 29.375 C-23.12420475 24.0103785 -22.52416866 18.40234575 -22 12 C-20.7323356 7.12025573 -18.7322067 4.12770311 -14.375 1.5625 C-13.26125 1.046875 -12.1475 0.53125 -11 0 C-7.495737 -1.7521315 -3.73127716 -0.81032787 0 0 Z " fill="#FDFDFD" transform="translate(336,50)"/>
<path d="M0 0 C1.24910156 0.00515625 2.49820313 0.0103125 3.78515625 0.015625 C5.03167969 0.01046875 6.27820313 0.0053125 7.5625 0 C10.84765625 0.265625 10.84765625 0.265625 13.84765625 2.265625 C14.2199707 4.93945312 14.2199707 4.93945312 14.2109375 8.296875 C14.21029297 9.49957031 14.20964844 10.70226562 14.20898438 11.94140625 C14.19287109 13.20339844 14.17675781 14.46539062 14.16015625 15.765625 C14.16499023 17.65861328 14.16499023 17.65861328 14.16992188 19.58984375 C14.11445628 28.99882497 14.11445628 28.99882497 11.84765625 31.265625 C9.30230484 31.46411571 6.89048866 31.54414275 4.34765625 31.515625 C3.65800781 31.52335937 2.96835937 31.53109375 2.2578125 31.5390625 C-2.89901082 31.51895793 -2.89901082 31.51895793 -5.15234375 29.265625 C-5.41113281 26.59179688 -5.41113281 26.59179688 -5.41796875 23.234375 C-5.42054687 22.03167969 -5.423125 20.82898438 -5.42578125 19.58984375 C-5.41804688 18.32785156 -5.4103125 17.06585938 -5.40234375 15.765625 C-5.41007812 14.50363281 -5.4178125 13.24164063 -5.42578125 11.94140625 C-5.42320313 10.73871094 -5.420625 9.53601563 -5.41796875 8.296875 C-5.41571289 7.18892578 -5.41345703 6.08097656 -5.41113281 4.93945312 C-5.0204652 0.90304583 -3.97812957 0.33520794 0 0 Z " fill="#498EF3" transform="translate(37.15234375,75.734375)"/>
<path d="M0 0 C2.64 0 5.28 0 8 0 C8 15.51 8 31.02 8 47 C5.03 47 2.06 47 -1 47 C-1.02475223 41.11011053 -1.04288482 35.22025146 -1.05493164 29.33032227 C-1.05995478 27.32738721 -1.06677445 25.32445581 -1.07543945 23.3215332 C-1.08759345 20.43960669 -1.09324857 17.55772875 -1.09765625 14.67578125 C-1.10281754 13.78288895 -1.10797882 12.88999664 -1.11329651 11.970047 C-1.113667 7.8472736 -1.04768418 4.02035208 0 0 Z " fill="#FDFDFD" transform="translate(204,38)"/>
<path d="M0 0 C2.64 0 5.28 0 8 0 C8.33 0.99 8.66 1.98 9 3 C10.0828125 2.2575 10.0828125 2.2575 11.1875 1.5 C14.14848659 -0.07919285 15.71253029 -0.28178312 19 0 C19 2.97 19 5.94 19 9 C16.94921875 9.48828125 14.8984375 9.9765625 12.84765625 10.46484375 C11.00030102 10.83887569 11.00030102 10.83887569 10 12 C9.85540295 13.4515606 9.77302889 14.90945286 9.71875 16.3671875 C9.68136719 17.25277344 9.64398438 18.13835937 9.60546875 19.05078125 C9.57066406 19.98277344 9.53585937 20.91476563 9.5 21.875 C9.43105461 23.70588303 9.35829824 25.53662756 9.28125 27.3671875 C9.23581055 28.59091064 9.23581055 28.59091064 9.18945312 29.83935547 C9 32 9 32 8 35 C5.36 35 2.72 35 0 35 C0 23.45 0 11.9 0 0 Z " fill="#FDFDFD" transform="translate(380,50)"/>
<path d="M0 0 C2.64 0 5.28 0 8 0 C8.33 1.32 8.66 2.64 9 4 C9.350625 3.525625 9.70125 3.05125 10.0625 2.5625 C12.86656308 0.3011588 15.47448179 0.2611495 19 0 C20 1 20 1 20.125 4.5 C20 8 20 8 19 9 C17.2984375 9.2165625 17.2984375 9.2165625 15.5625 9.4375 C11.95941003 9.64847551 11.95941003 9.64847551 10 12 C9.06604348 14.84067453 8.82434713 17.5709464 8.68359375 20.546875 C8.64169922 21.39121094 8.59980469 22.23554687 8.55664062 23.10546875 C8.51732422 23.97816406 8.47800781 24.85085937 8.4375 25.75 C8.39431641 26.63816406 8.35113281 27.52632812 8.30664062 28.44140625 C8.20086505 30.62743472 8.0999574 32.81369777 8 35 C5.03 35 2.06 35 -1 35 C-0.67 23.45 -0.34 11.9 0 0 Z " fill="#FDFDFD" transform="translate(261,50)"/>
<path d="M0 0 C2.64 0 5.28 0 8 0 C8 15.51 8 31.02 8 47 C5.36 47 2.72 47 0 47 C0 31.49 0 15.98 0 0 Z " fill="#FDFDFD" transform="translate(217,38)"/>
<path d="M0 0 C2.64 0 5.28 0 8 0 C8 11.55 8 23.1 8 35 C5.03 35 2.06 35 -1 35 C-1.0246519 30.17619198 -1.04283693 25.35242033 -1.05493164 20.52856445 C-1.05997174 18.88630536 -1.06680378 17.24405077 -1.07543945 15.60180664 C-1.08751926 13.24624521 -1.09323139 10.89074291 -1.09765625 8.53515625 C-1.10281754 7.79660904 -1.10797882 7.05806183 -1.11329651 6.2971344 C-1.1134925 4.53101912 -1.06194719 2.76502854 -1 1 C-0.67 0.67 -0.34 0.34 0 0 Z " fill="#FDFDFD" transform="translate(191,50)"/>
<path d="M0 0 C2.21477492 3.32216238 2.29667707 4.55033323 2.3125 8.4375 C2.33763672 9.85869141 2.33763672 9.85869141 2.36328125 11.30859375 C1.93395198 14.48932347 1.36402748 15.82792347 -1 18 C-3.62890625 18.49609375 -3.62890625 18.49609375 -6.5625 18.4375 C-7.53316406 18.43621094 -8.50382812 18.43492188 -9.50390625 18.43359375 C-10.73947266 18.21896484 -10.73947266 18.21896484 -12 18 C-14.39740646 14.40389031 -14.23987692 12.69907673 -14.1875 8.4375 C-14.18105469 7.28121094 -14.17460937 6.12492187 -14.16796875 4.93359375 C-14 2 -14 2 -13 0 C-8.51900794 -1.49366402 -4.54468751 -0.89403689 0 0 Z " fill="#4B8EEE" transform="translate(25,89)"/>
<path d="M0 0 C0.33 0 0.66 0 1 0 C0.52087184 8.24430867 -0.97785501 16.00044527 -3 24 C-7.4941079 25.28403083 -8.23687162 24.90525135 -13 23 C-18.61 28.61 -24.22 34.22 -30 40 C-30.33 39.01 -30.66 38.02 -31 37 C-31.66 36.34 -32.32 35.68 -33 35 C-33.66 35 -34.32 35 -35 35 C-35.66 33.68 -36.32 32.36 -37 31 C-37.99 32.485 -37.99 32.485 -39 34 C-40.98 33.67 -42.96 33.34 -45 33 C-45.495 31.515 -45.495 31.515 -46 30 C-51.7974423 29.75571657 -51.7974423 29.75571657 -57 32 C-52.80578512 27.20661157 -52.80578512 27.20661157 -49.5625 26.375 C-45.78134908 27.29723193 -43.83670859 29.36120131 -41 32 C-38.36 30.02 -35.72 28.04 -33 26 C-33 26.99 -33 27.98 -33 29 C-32.01 29.33 -31.02 29.66 -30 30 C-30.33 30.33 -30.66 30.66 -31 31 C-29.35 31.66 -27.7 32.32 -26 33 C-26.66 31.68 -27.32 30.36 -28 29 C-24.98968256 28.06576355 -24.13349732 27.95550089 -21 29 C-21 27.68 -21 26.36 -21 25 C-19.68 25 -18.36 25 -17 25 C-17.495 23.02 -17.495 23.02 -18 21 C-15.36095629 19.58622659 -12.92879371 18.62759865 -10 18 C-10 19.32 -10 20.64 -10 22 C-9.01 22 -8.02 22 -7 22 C-6.67 21.34 -6.34 20.68 -6 20 C-5.01 19.67 -4.02 19.34 -3 19 C-2.855625 17.700625 -2.71125 16.40125 -2.5625 15.0625 C-2.42521484 13.84240234 -2.42521484 13.84240234 -2.28515625 12.59765625 C-2.0963033 10.87728352 -1.91648861 9.15589261 -1.74609375 7.43359375 C-1.66488281 6.63050781 -1.58367187 5.82742187 -1.5 5 C-1.4278125 4.2575 -1.355625 3.515 -1.28125 2.75 C-1 1 -1 1 0 0 Z " fill="#4F8DE7" transform="translate(106,9)"/>
<path d="M0 0 C0 0.66 0 1.32 0 2 C-2.64 2.66 -5.28 3.32 -8 4 C-8.12375 5.134375 -8.2475 6.26875 -8.375 7.4375 C-8.684375 9.2009375 -8.684375 9.2009375 -9 11 C-9.99 11.495 -9.99 11.495 -11 12 C-11.46651207 14.12576782 -11.46651207 14.12576782 -11.625 16.5625 C-11.69976562 17.38878906 -11.77453125 18.21507813 -11.8515625 19.06640625 C-11.90054688 19.70449219 -11.94953125 20.34257812 -12 21 C-12.94166016 21.19916016 -12.94166016 21.19916016 -13.90234375 21.40234375 C-16.09713985 21.84386489 -16.09713985 21.84386489 -17.5625 23.5625 C-18.036875 24.036875 -18.51125 24.51125 -19 25 C-19.99 25 -20.98 25 -22 25 C-22 25.99 -22 26.98 -22 28 C-23.32 27.67 -24.64 27.34 -26 27 C-25.19433594 26.26394531 -24.38867188 25.52789062 -23.55859375 24.76953125 C-22.51745583 23.78467105 -21.47713316 22.79894852 -20.4375 21.8125 C-19.90447266 21.32974609 -19.37144531 20.84699219 -18.82226562 20.34960938 C-17.0819336 18.74047206 -17.0819336 18.74047206 -15 16 C-14.98125747 13.297981 -14.98125747 13.297981 -16 11 C-16.185625 10.236875 -16.37125 9.47375 -16.5625 8.6875 C-16.706875 8.130625 -16.85125 7.57375 -17 7 C-11.89128979 3.29618509 -6.46605259 0 0 0 Z " fill="#508BE8" transform="translate(99,7)"/>
<path d="M0 0 C0.33 0 0.66 0 1 0 C1.07401579 5.94479629 1.12853813 11.88932593 1.16479492 17.83447266 C1.17990526 19.85795766 1.20039437 21.8814098 1.22631836 23.90478516 C1.26260328 26.80900165 1.27970355 29.71278615 1.29296875 32.6171875 C1.30845261 33.52556366 1.32393646 34.43393982 1.33988953 35.36984253 C1.34011612 36.21056305 1.34034271 37.05128357 1.34057617 37.91748047 C1.34723801 38.65916473 1.35389984 39.400849 1.36076355 40.16500854 C1.24171158 40.77055573 1.12265961 41.37610291 1 42 C-2.57121718 44.38081145 -4.26674633 44.26906871 -8.5 44.25 C-9.6446875 44.25515625 -10.789375 44.2603125 -11.96875 44.265625 C-15 44 -15 44 -18 42 C-18.1875 38.375 -18.1875 38.375 -18 35 C-17.67 36.32 -17.34 37.64 -17 39 C-16.01 39 -15.02 39 -14 39 C-14 39.66 -14 40.32 -14 41 C-12.58366664 41.16947579 -11.16691467 41.33545507 -9.75 41.5 C-8.56664063 41.63921875 -8.56664063 41.63921875 -7.359375 41.78125 C-4.73109603 42.06154619 -4.73109603 42.06154619 -1 42 C-1.00523682 40.7632251 -1.01047363 39.5264502 -1.01586914 38.25219727 C-1.03391561 33.68075275 -1.04543071 29.10931141 -1.05493164 24.5378418 C-1.05997267 22.55606559 -1.06680538 20.57429311 -1.07543945 18.5925293 C-1.08751515 15.75047891 -1.09323045 12.90847753 -1.09765625 10.06640625 C-1.10281754 9.17474258 -1.10797882 8.28307892 -1.11329651 7.36439514 C-1.11349177 5.24259399 -1.0621003 3.1208922 -1 1 C-0.67 0.67 -0.34 0.34 0 0 Z " fill="#578EDD" transform="translate(76,63)"/>
<path d="M0 0 C0.33 1.32 0.66 2.64 1 4 C2.98 3.34 4.96 2.68 7 2 C7.66796875 3.7421875 7.66796875 3.7421875 8 6 C6.92578125 8.0703125 6.92578125 8.0703125 5.3125 10.125 C4.79300781 10.80820313 4.27351563 11.49140625 3.73828125 12.1953125 C1.93684538 14.06556727 0.37602461 14.99575431 -2 16 C-3.03295436 14.90716423 -4.05107835 13.80029421 -5.0625 12.6875 C-5.63097656 12.07261719 -6.19945312 11.45773438 -6.78515625 10.82421875 C-7.18605469 10.22222656 -7.58695313 9.62023437 -8 9 C-7.67 8.01 -7.34 7.02 -7 6 C-4.69 6 -2.38 6 0 6 C0 5.34 0 4.68 0 4 C-0.66 4 -1.32 4 -2 4 C-1.34 2.68 -0.68 1.36 0 0 Z " fill="#498FF7" transform="translate(21,71)"/>
<path d="M0 0 C0.33 0 0.66 0 1 0 C1.0578304 4.45827926 1.09353855 8.9164628 1.125 13.375 C1.14175781 14.64601563 1.15851562 15.91703125 1.17578125 17.2265625 C1.18222656 18.43828125 1.18867187 19.65 1.1953125 20.8984375 C1.20578613 22.01911621 1.21625977 23.13979492 1.22705078 24.29443359 C1 27 1 27 -1 29 C-3.58064129 29.14497985 -6.04943884 29.18677545 -8.625 29.125 C-9.68460938 29.11146484 -9.68460938 29.11146484 -10.765625 29.09765625 C-12.51056098 29.07407603 -14.25532295 29.03820461 -16 29 C-16.33 28.34 -16.66 27.68 -17 27 C-14.36 27.33 -11.72 27.66 -9 28 C-8.67 27.34 -8.34 26.68 -8 26 C-5.71546567 24.85773284 -3.37491201 23.93746527 -1 23 C-1.33 22.01 -1.66 21.02 -2 20 C-1.92993164 17.82348633 -1.92993164 17.82348633 -1.66015625 15.33203125 C-1.56669922 14.43935547 -1.47324219 13.54667969 -1.37695312 12.62695312 C-1.27318359 11.69818359 -1.16941406 10.76941406 -1.0625 9.8125 C-0.96259766 8.87212891 -0.86269531 7.93175781 -0.75976562 6.96289062 C-0.51228034 4.64124292 -0.25880867 2.32040817 0 0 Z " fill="#528EE3" transform="translate(50,78)"/>
<path d="M0 0 C2.4375 0.9375 2.4375 0.9375 3.875 3.25 C4.4375 5.9375 4.4375 5.9375 3.875 8.1875 C2.4375 9.9375 2.4375 9.9375 0.0625 10.9375 C-2.5625 10.9375 -2.5625 10.9375 -4.9375 9.3125 C-6.5625 6.9375 -6.5625 6.9375 -6.5 4.3125 C-5.16538393 0.93147262 -3.63396303 -0.08863324 0 0 Z " fill="#FDFDFD" transform="translate(195.5625,37.0625)"/>
<path d="M0 0 C0.33 0.99 0.66 1.98 1 3 C0.21625 3.7425 -0.5675 4.485 -1.375 5.25 C-3.56504531 7.54433318 -4.82731386 9.12158858 -6 12 C-5.01 12 -4.02 12 -3 12 C-3 12.66 -3 13.32 -3 14 C-2.01 14.33 -1.02 14.66 0 15 C0.66 14.01 1.32 13.02 2 12 C2.66 12 3.32 12 4 12 C3.82374165 14.37948772 3.30280227 15.70225849 1.59765625 17.37890625 C0.09350908 18.62115486 -1.45129851 19.81376056 -3 21 C-3.33 20.34 -3.66 19.68 -4 19 C-3.34 19 -2.68 19 -2 19 C-2.33 18.01 -2.66 17.02 -3 16 C-4.32 16.33 -5.64 16.66 -7 17 C-7 16.01 -7 15.02 -7 14 C-8.65 14 -10.3 14 -12 14 C-8.34161026 8.88863277 -4.55388068 4.33702922 0 0 Z " fill="#4C8DEC" transform="translate(47,42)"/>
<path d="M0 0 C2.28062828 3.42094242 2.21925007 4.68187222 2.125 8.6875 C2.10695313 9.68136719 2.08890625 10.67523438 2.0703125 11.69921875 C2.03550781 12.83810547 2.03550781 12.83810547 2 14 C1.67 14 1.34 14 1 14 C0.01751476 9.9472484 -0.08159574 6.16138263 0 2 C-1.32 1.67 -2.64 1.34 -4 1 C-4 1.66 -4 2.32 -4 3 C-6.97 2.67 -9.94 2.34 -13 2 C-13 1.34 -13 0.68 -13 0 C-8.36148096 -1.30458348 -4.67177177 -0.91903707 0 0 Z " fill="#5C93DC" transform="translate(25,89)"/>
<path d="M0 0 C3.78115092 0.92223193 5.72579141 2.98620131 8.5625 5.625 C9.5525 4.635 10.5425 3.645 11.5625 2.625 C12.2225 2.955 12.8825 3.285 13.5625 3.625 C12.5725 4.945 11.5825 6.265 10.5625 7.625 C7.5925 7.13 7.5925 7.13 4.5625 6.625 C4.2325 5.635 3.9025 4.645 3.5625 3.625 C-2.2349423 3.38071657 -2.2349423 3.38071657 -7.4375 5.625 C-3.24328512 0.83161157 -3.24328512 0.83161157 0 0 Z " fill="#588FDD" transform="translate(56.4375,35.375)"/>
<path d="M0 0 C0 0.66 0 1.32 0 2 C-2.64 2.66 -5.28 3.32 -8 4 C-8.33 5.65 -8.66 7.3 -9 9 C-9.66 9 -10.32 9 -11 9 C-11 8.01 -11 7.02 -11 6 C-12.32 5.67 -13.64 5.34 -15 5 C-13.06532058 4.16013916 -11.12714871 3.32831973 -9.1875 2.5 C-8.10855469 2.0359375 -7.02960938 1.571875 -5.91796875 1.09375 C-3 0 -3 0 0 0 Z " fill="#518DE0" transform="translate(99,7)"/>
<path d="M0 0 C0 1.65 0 3.3 0 5 C-0.66 5 -1.32 5 -2 5 C-2 5.66 -2 6.32 -2 7 C-2.763125 7.268125 -3.52625 7.53625 -4.3125 7.8125 C-6.87380884 8.94424112 -8.19692938 9.91223401 -10 12 C-10.66 11.67 -11.32 11.34 -12 11 C-10.19047409 9.16364422 -8.37759362 7.33083792 -6.5625 5.5 C-6.04623047 4.97535156 -5.52996094 4.45070313 -4.99804688 3.91015625 C-1.11328125 0 -1.11328125 0 0 0 Z " fill="#558BDB" transform="translate(35,56)"/>
<path d="M0 0 C5.63808487 -0.22552339 9.94673026 0.47336513 15 3 C14.01 4.485 14.01 4.485 13 6 C13.66 6.33 14.32 6.66 15 7 C13.35 6.67 11.7 6.34 10 6 C10 5.34 10 4.68 10 4 C8.02253397 3.26919734 6.01927511 2.60578253 4 2 C3.01 2.495 3.01 2.495 2 3 C2 2.34 2 1.68 2 1 C1.34 0.67 0.68 0.34 0 0 Z " fill="#5092E2" transform="translate(51,51)"/>
<path d="M0 0 C0.33 0.99 0.66 1.98 1 3 C-1.31 5.31 -3.62 7.62 -6 10 C-6.66 9.67 -7.32 9.34 -8 9 C-7.67 8.01 -7.34 7.02 -7 6 C-6.01 6 -5.02 6 -4 6 C-4 4.35 -4 2.7 -4 1 C-2 0 -2 0 0 0 Z " fill="#518DE3" transform="translate(74,47)"/>
<path d="M0 0 C0.33 1.32 0.66 2.64 1 4 C1.99 4 2.98 4 4 4 C4 4.66 4 5.32 4 6 C6.64 6.66 9.28 7.32 12 8 C12 8.33 12 8.66 12 9 C10.5629191 9.05422947 9.12524538 9.09289723 7.6875 9.125 C6.88699219 9.14820312 6.08648437 9.17140625 5.26171875 9.1953125 C3 9 3 9 0 7 C-0.1875 3.375 -0.1875 3.375 0 0 Z " fill="#528ADB" transform="translate(58,98)"/>
<path d="M0 0 C0 3.51716303 -0.82445585 4.37121748 -3 7 C-2.34 7 -1.68 7 -1 7 C-0.67 7.99 -0.34 8.98 0 10 C-2.31 9.67 -4.62 9.34 -7 9 C-2.85714286 2.57142857 -2.85714286 2.57142857 0 0 Z " fill="#518DE3" transform="translate(22,68)"/>
<path d="M0 0 C0.33 0.99 0.66 1.98 1 3 C-2 6 -5 9 -8 12 C-8.66 11.67 -9.32 11.34 -10 11 C-6.7 7.37 -3.4 3.74 0 0 Z " fill="#5288DA" transform="translate(47,42)"/>
<path d="M0 0 C0.33 0.66 0.66 1.32 1 2 C0.34 2 -0.32 2 -1 2 C-1 2.66 -1 3.32 -1 4 C-3.97 3.67 -6.94 3.34 -10 3 C-10 2.34 -10 1.68 -10 1 C-6.59437148 0.22157062 -3.49234244 -0.09978121 0 0 Z " fill="#5684DE" transform="translate(22,88)"/>
<path d="M0 0 C0.2784375 0.8971875 0.2784375 0.8971875 0.5625 1.8125 C2.72273753 5.09981799 5.35107655 5.64854687 9 7 C7.68 7.99 6.36 8.98 5 10 C3.96704564 8.90716423 2.94892165 7.80029421 1.9375 6.6875 C1.36902344 6.07261719 0.80054688 5.45773438 0.21484375 4.82421875 C-0.38650391 3.92123047 -0.38650391 3.92123047 -1 3 C-0.67 2.01 -0.34 1.02 0 0 Z " fill="#4F8FD8" transform="translate(14,77)"/>
</svg>
